<?xml version="1.0" encoding="UTF-8" standalone="no"?>
<!-- Created with Inkscape (http://www.inkscape.org/) -->

<svg
   width="150mm"
   height="150mm"
   viewBox="0 0 150 150"
   version="1.1"
   id="svg5"
   inkscape:version="1.3 (0e150ed6c4, 2023-07-21)"
   sodipodi:docname="ConstructionCap.svg"
   xmlns:inkscape="http://www.inkscape.org/namespaces/inkscape"
   xmlns:sodipodi="http://sodipodi.sourceforge.net/DTD/sodipodi-0.dtd"
   xmlns="http://www.w3.org/2000/svg"
   xmlns:svg="http://www.w3.org/2000/svg">
  <sodipodi:namedview
     id="namedview7"
     pagecolor="#ffffff"
     bordercolor="#666666"
     borderopacity="1.0"
     inkscape:showpageshadow="2"
     inkscape:pageopacity="0.0"
     inkscape:pagecheckerboard="0"
     inkscape:deskcolor="#d1d1d1"
     inkscape:document-units="mm"
     showgrid="false"
     inkscape:zoom="0.74564396"
     inkscape:cx="-15.42291"
     inkscape:cy="211.22682"
     inkscape:window-width="1920"
     inkscape:window-height="1017"
     inkscape:window-x="-8"
     inkscape:window-y="-8"
     inkscape:window-maximized="1"
     inkscape:current-layer="g4" />
  <defs
     id="defs2" />
  <g
     inkscape:label="shadow"
     inkscape:groupmode="layer"
     id="g4"
     transform="translate(185.67255,82.298103)">
    <path
       id="rect1"
       style="fill:#000000;stroke-width:5;stroke-linecap:round;paint-order:markers stroke fill;stroke:#000000;stroke-dasharray:none"
       d="M -124.7363 -37.916586 C -127.5215 -37.170293 -127.82482 -36.084846 -128.19127 -35.608406 C -128.55771 -35.131967 -128.68304 -34.879837 -128.7901 -34.678629 C -129.00422 -34.276211 -129.06759 -34.099104 -129.1332 -33.934537 C -129.26445 -33.605399 -129.33081 -33.400223 -129.40853 -33.16313 C -129.56398 -32.688943 -129.72455 -32.155073 -129.91803 -31.490643 C -130.30502 -30.161779 -130.80775 -28.352959 -131.39821 -26.187067 C -132.57916 -21.855278 -134.1011 -16.124514 -135.61243 -10.38406 C -137.12377 -4.6436076 -138.62304 1.1029883 -139.75289 5.4446559 C -140.31782 7.6154923 -140.79061 9.4349132 -141.12565 10.725868 C -141.46068 12.016822 -141.76595 13.179147 -141.66094 12.787253 C -141.55594 12.395371 -141.87327 13.554142 -142.2286 14.839655 C -142.58394 16.125168 -143.0839 17.936163 -143.68008 20.098625 C -144.87243 24.423551 -146.44763 30.151819 -148.009 35.878867 C -149.57037 41.605915 -151.11671 47.328919 -152.25988 51.670833 C -152.83146 53.841784 -153.30096 55.660585 -153.63025 57.004903 C -153.7949 57.677064 -153.92283 58.218802 -154.0253 58.707178 C -154.07654 58.951372 -154.12116 59.162491 -154.17206 59.51315 C -154.19755 59.688492 -154.23094 59.873123 -154.24672 60.328689 C -154.25463 60.556479 -154.2728 60.837309 -154.19367 61.433146 C -154.11456 62.028989 -154.39555 63.121484 -152.35662 65.160406 C -150.31772 67.199319 -149.22415 66.919883 -148.62832 66.999019 C -148.03247 67.078151 -147.75225 67.059406 -147.52447 67.051524 C -147.0689 67.035742 -146.88378 67.001705 -146.70844 66.976248 C -146.35778 66.925355 -146.14722 66.880659 -145.90302 66.829451 C -145.41464 66.726968 -144.87216 66.599269 -144.19999 66.43465 C -142.85568 66.105355 -141.03738 65.635389 -138.86641 65.063835 C -134.5245 63.920654 -128.80148 62.374499 -123.07443 60.813128 C -121.76793 60.456931 -120.76463 60.17848 -119.47478 59.825599 L -119.47473 87.622793 L -107.34697 87.622723 L -107.34658 56.498819 C -107.33248 56.494932 -107.30937 56.488422 -107.2953 56.484543 C -105.13284 55.888354 -103.32142 55.387838 -102.03591 55.032495 C -100.7504 54.677161 -99.590794 54.360208 -99.98267 54.465211 C -100.37455 54.570213 -99.213339 54.265236 -97.922366 53.930274 C -96.631411 53.595244 -94.810917 53.122602 -92.64008 52.557689 C -92.625955 52.554013 -92.602688 52.548096 -92.588533 52.544412 L -77.026739 79.498441 L -66.523261 73.43449 L -80.421813 49.361388 C -79.128694 49.022159 -78.120938 48.76176 -76.811656 48.417054 C -71.071198 46.905738 -65.340842 45.382938 -61.009053 44.202019 C -58.843164 43.611525 -57.03349 43.10937 -55.704625 42.722388 C -55.040191 42.528928 -54.50655 42.368217 -54.032359 42.212781 C -53.795277 42.135031 -53.59058 42.06846 -53.261446 41.937201 C -53.096876 41.871603 -52.919516 41.808514 -52.517109 41.594379 C -52.315899 41.487324 -52.063836 41.363425 -51.587399 40.996983 C -51.110962 40.63054 -50.025717 40.326143 -49.279403 37.54095 C -48.533135 34.755756 -49.321215 33.949685 -49.550602 33.394121 C -49.77998 32.83855 -49.935668 32.604291 -50.056387 32.410974 C -50.29783 32.02433 -50.4196 31.881274 -50.529308 31.742157 C -50.74873 31.463933 -50.892428 31.303272 -51.058898 31.117414 C -51.391832 30.745705 -51.773993 30.340645 -52.25266 29.84086 C -53.209993 28.841291 -54.525981 27.500909 -56.106464 25.906602 C -59.267431 22.717978 -63.468106 18.534883 -67.683818 14.355799 C -71.899525 10.176715 -76.127828 6.0034894 -79.322896 2.8541705 C -80.920434 1.2795123 -82.260406 -0.038472194 -83.210893 -0.97409247 C -84.16138 -1.9097127 -85.013863 -2.7547517 -84.727207 -2.4680953 C -84.440542 -2.1814251 -85.285864 -3.0351733 -86.221479 -3.985659 C -87.157102 -4.9361439 -88.47627 -6.2754102 -90.050927 -7.8729446 C -93.20025 -11.068011 -97.37194 -15.295078 -101.55103 -19.510787 C -105.73011 -23.726496 -109.91353 -27.928515 -113.10215 -31.089482 C -114.69646 -32.669965 -116.03625 -33.985086 -117.03581 -34.942423 C -117.5356 -35.421091 -117.94158 -35.803156 -118.31329 -36.13609 C -118.49915 -36.302557 -118.65922 -36.447061 -118.93744 -36.666483 C -119.07656 -36.776193 -119.21998 -36.89789 -119.60663 -37.139333 C -119.79995 -37.260054 -120.03455 -37.415741 -120.59012 -37.645128 C -121.14569 -37.874515 -121.95109 -38.66288 -124.7363 -37.916586 z "
       transform="rotate(15)" />
  </g>
  <g
     inkscape:label="Layer 1"
     inkscape:groupmode="layer"
     id="layer1"
     transform="translate(185.67255,82.298103)">
    <g
       id="g1041"
       transform="matrix(0.64489223,0,0,0.64489223,-166.05007,-75.03259)"
       inkscape:label="g1041">
      <g
         id="g1033">
        <rect
           style="fill:#803300;stroke:none;stroke-width:20;stroke-linecap:round;stroke-dasharray:none;paint-order:markers stroke fill"
           id="rect1007"
           width="18.806452"
           height="94.032257"
           x="93.561325"
           y="87.582306"
           transform="rotate(15)" />
        <rect
           style="fill:#803300;stroke:none;stroke-width:20;stroke-linecap:round;stroke-dasharray:none;paint-order:markers stroke fill"
           id="rect1007-6"
           width="18.806452"
           height="94.032257"
           x="-72.328644"
           y="132.03239"
           transform="matrix(-0.96592583,0.25881905,0.25881905,0.96592583,0,0)" />
      </g>
      <path
         sodipodi:type="star"
         style="fill:#ff6600;stroke:#333333;stroke-width:20;stroke-linecap:round;stroke-dasharray:none;paint-order:markers stroke fill"
         id="path234"
         inkscape:flatsided="false"
         sodipodi:sides="3"
         sodipodi:cx="85.870972"
         sodipodi:cy="105.03226"
         sodipodi:r1="85.536736"
         sodipodi:r2="42.768368"
         sodipodi:arg1="0.52359878"
         sodipodi:arg2="1.5707963"
         inkscape:rounded="0.01"
         inkscape:randomized="0"
         d="m 159.94796,147.80063 c -0.37039,0.64152 -73.336217,-1e-5 -74.076987,-1e-5 -0.74077,0 -73.706602,0.64153 -74.076987,0 -0.370385,-0.64152 36.668107,-63.51102 37.038492,-64.152546 0.370385,-0.641525 36.297724,-64.152552 37.038494,-64.152552 0.74077,0 36.668108,63.511025 37.038488,64.15255 0.37039,0.641526 37.40888,63.511028 37.0385,64.152558 z"
         inkscape:transform-center-x="1.0818389e-06"
         inkscape:transform-center-y="-21.384186" />
    </g>
  </g>
</svg>
