<?xml version="1.0" encoding="UTF-8" standalone="no"?>
<!-- Created with Inkscape (http://www.inkscape.org/) -->

<svg
   width="110.44577mm"
   height="110.44577mm"
   viewBox="0 0 110.44577 110.44577"
   version="1.1"
   id="svg1"
   inkscape:version="1.3 (0e150ed6c4, 2023-07-21)"
   sodipodi:docname="target.svg"
   xmlns:inkscape="http://www.inkscape.org/namespaces/inkscape"
   xmlns:sodipodi="http://sodipodi.sourceforge.net/DTD/sodipodi-0.dtd"
   xmlns="http://www.w3.org/2000/svg"
   xmlns:svg="http://www.w3.org/2000/svg">
  <sodipodi:namedview
     id="namedview1"
     pagecolor="#ffffff"
     bordercolor="#000000"
     borderopacity="0.25"
     inkscape:showpageshadow="2"
     inkscape:pageopacity="0.0"
     inkscape:pagecheckerboard="0"
     inkscape:deskcolor="#d1d1d1"
     inkscape:document-units="mm"
     inkscape:zoom="0.74742566"
     inkscape:cx="276.28166"
     inkscape:cy="288.32299"
     inkscape:window-width="1920"
     inkscape:window-height="1017"
     inkscape:window-x="-8"
     inkscape:window-y="-8"
     inkscape:window-maximized="1"
     inkscape:current-layer="layer1" />
  <defs
     id="defs1" />
  <g
     inkscape:label="Layer 1"
     inkscape:groupmode="layer"
     id="layer1"
     transform="translate(-19.823601,-66.550652)">
    <path
       id="path1"
       style="fill:#ff0000;stroke-width:1.22855;stroke-miterlimit:0;paint-order:markers fill stroke"
       d="M 75.046164,79.153666 A 42.620029,42.620029 0 0 0 32.426615,121.77322 42.620029,42.620029 0 0 0 75.046164,164.39341 42.620029,42.620029 0 0 0 117.66636,121.77322 42.620029,42.620029 0 0 0 75.046164,79.153666 Z m 0,11.90638 A 30.713777,30.713777 0 0 1 105.75998,121.77322 30.713777,30.713777 0 0 1 75.046164,152.48703 30.713777,30.713777 0 0 1 44.332357,121.77322 30.713777,30.713777 0 0 1 75.046164,91.060046 Z" />
    <path
       id="path2"
       style="fill:#ff0000;stroke-width:1.22855;stroke-miterlimit:0;paint-order:markers fill stroke"
       d="m 75.046799,100.86246 a 20.91133,20.91133 0 0 0 -20.911393,20.9114 20.91133,20.91133 0 0 0 20.911393,20.91075 20.91133,20.91133 0 0 0 20.910762,-20.91075 20.91133,20.91133 0 0 0 -20.910762,-20.9114 z m 0,11.53181 a 9.379346,9.379346 0 0 1 9.378956,9.37959 9.379346,9.379346 0 0 1 -9.378956,9.37896 9.379346,9.379346 0 0 1 -9.37959,-9.37896 9.379346,9.379346 0 0 1 9.37959,-9.37959 z" />
    <rect
       style="fill:#ff0000;stroke-width:0.665541;stroke-miterlimit:0;paint-order:markers fill stroke"
       id="rect1"
       width="6.1326118"
       height="97.842758"
       x="71.980179"
       y="72.852158" />
    <rect
       style="fill:#ff0000;stroke-width:0.665541;stroke-miterlimit:0;paint-order:markers fill stroke"
       id="rect1-1"
       width="6.1326118"
       height="97.842758"
       x="118.70723"
       y="-123.96786"
       transform="rotate(90)" />
  </g>
</svg>
