<?xml version="1.0" encoding="UTF-8" standalone="no"?>
<!-- Created with Inkscape (http://www.inkscape.org/) -->

<svg
   width="210mm"
   height="297mm"
   viewBox="0 0 210 297"
   version="1.1"
   id="svg1"
   inkscape:version="1.3 (0e150ed6c4, 2023-07-21)"
   sodipodi:docname="arid1.svg"
   xmlns:inkscape="http://www.inkscape.org/namespaces/inkscape"
   xmlns:sodipodi="http://sodipodi.sourceforge.net/DTD/sodipodi-0.dtd"
   xmlns="http://www.w3.org/2000/svg"
   xmlns:svg="http://www.w3.org/2000/svg">
  <sodipodi:namedview
     id="namedview1"
     pagecolor="#ffffff"
     bordercolor="#000000"
     borderopacity="0.25"
     inkscape:showpageshadow="2"
     inkscape:pageopacity="0.0"
     inkscape:pagecheckerboard="0"
     inkscape:deskcolor="#d1d1d1"
     inkscape:document-units="mm"
     inkscape:zoom="0.74742565"
     inkscape:cx="396.69498"
     inkscape:cy="561.25984"
     inkscape:window-width="1920"
     inkscape:window-height="1017"
     inkscape:window-x="-8"
     inkscape:window-y="-8"
     inkscape:window-maximized="1"
     inkscape:current-layer="layer1" />
  <defs
     id="defs1" />
  <g
     inkscape:label="Layer 1"
     inkscape:groupmode="layer"
     id="layer1">
    <ellipse
       style="fill:#5f5f5f;fill-opacity:1;stroke-width:0.84659;stroke-miterlimit:0;paint-order:markers fill stroke"
       id="path1-2"
       cx="105"
       cy="136.83495"
       rx="23.286144"
       ry="15.126762" />
    <path
       id="path1"
       style="fill:#999999;stroke-width:0.84659;stroke-miterlimit:0;paint-order:markers fill stroke"
       d="m 88.606077,142.28734 a 23.286144,15.126762 0 0 0 -23.285977,15.12679 23.286144,15.126762 0 0 0 1.141614,4.58144 c 6.990283,1.55005 14.756897,2.97286 20.252371,3.04736 8.235932,0.11165 16.312855,-1.85317 24.404255,-3.77732 a 23.286144,15.126762 0 0 0 0.77372,-3.85148 23.286144,15.126762 0 0 0 -23.285983,-15.12679 z" />
    <path
       id="path1-76"
       style="fill:#6d6d6d;fill-opacity:1;stroke-width:0.84659;stroke-miterlimit:0;paint-order:markers fill stroke"
       d="m 126.38779,142.28734 a 23.286144,15.126762 0 0 0 -23.28597,15.12679 23.286144,15.126762 0 0 0 1.14162,4.58144 c 6.99028,1.55005 14.75689,2.97286 20.25236,3.04736 8.23592,0.11165 16.31285,-1.85317 24.40425,-3.77732 a 23.286144,15.126762 0 0 0 0.77371,-3.85148 23.286144,15.126762 0 0 0 -23.28597,-15.12679 z" />
  </g>
</svg>
