<?xml version="1.0" encoding="UTF-8" standalone="no"?>
<!-- Created with Inkscape (http://www.inkscape.org/) -->

<svg
   width="113.77945mm"
   height="113.77945mm"
   viewBox="0 0 113.77945 113.77945"
   version="1.1"
   id="svg1"
   inkscape:version="1.3 (0e150ed6c4, 2023-07-21)"
   sodipodi:docname="Port.svg"
   xmlns:inkscape="http://www.inkscape.org/namespaces/inkscape"
   xmlns:sodipodi="http://sodipodi.sourceforge.net/DTD/sodipodi-0.dtd"
   xmlns:xlink="http://www.w3.org/1999/xlink"
   xmlns="http://www.w3.org/2000/svg"
   xmlns:svg="http://www.w3.org/2000/svg">
  <sodipodi:namedview
     id="namedview1"
     pagecolor="#ffffff"
     bordercolor="#000000"
     borderopacity="0.25"
     inkscape:showpageshadow="2"
     inkscape:pageopacity="0.0"
     inkscape:pagecheckerboard="0"
     inkscape:deskcolor="#d1d1d1"
     inkscape:document-units="mm"
     inkscape:zoom="0.74742565"
     inkscape:cx="158.5442"
     inkscape:cy="236.14389"
     inkscape:window-width="1920"
     inkscape:window-height="1017"
     inkscape:window-x="-8"
     inkscape:window-y="-8"
     inkscape:window-maximized="1"
     inkscape:current-layer="layer1" />
  <defs
     id="defs1">
    <linearGradient
       inkscape:collect="always"
       xlink:href="#linearGradient7919"
       id="linearGradient7921"
       x1="214.46075"
       y1="119.11861"
       x2="217.22885"
       y2="119.11861"
       gradientUnits="userSpaceOnUse"
       spreadMethod="reflect"
       gradientTransform="translate(4.057378,3.9544312)" />
    <linearGradient
       inkscape:collect="always"
       id="linearGradient7919">
      <stop
         style="stop-color:#898989;stop-opacity:1;"
         offset="0"
         id="stop7915" />
      <stop
         style="stop-color:#d5d5d5;stop-opacity:1;"
         offset="1"
         id="stop7917" />
    </linearGradient>
  </defs>
  <g
     inkscape:label="Layer 1"
     inkscape:groupmode="layer"
     id="layer1"
     transform="translate(-63.071502,-86.087699)">
    <path
       id="rect550-7"
       style="color:#000000;fill:#000000;stroke:#000000;stroke-width:6;stroke-linecap:square;stroke-linejoin:round;stroke-miterlimit:0;stroke-dasharray:none"
       d="m 99.696941,117.0354 a 0.78475848,0.78475848 0 0 0 -0.03772,0.003 0.78475848,0.78475848 0 0 0 -0.03824,0.003 0.78475848,0.78475848 0 0 0 -0.14573,0.0274 0.78475848,0.78475848 0 0 0 -0.01705,0.003 l -19.670122,6.25905 h -4.528923 v 3.41116 h 3.044259 v 2.69699 l -1.227315,0.63975 v 5.66529 h 9.166365 v -5.66529 L 85.01515,129.439 v -2.69699 h 10.100161 v 6.89415 7.49826 a 0.78476022,0.78476022 0 0 0 0.0041,0.0388 0.78476022,0.78476022 0 0 0 -0.0041,0.047 v 7.5923 7.49825 a 0.78476022,0.78476022 0 0 0 5.1e-4,0.005 0.78476022,0.78476022 0 0 0 -5.1e-4,0.006 v 7.41453 H 76.479237 v 3.64061 a 8.5902379,5.7110299 0 0 1 -0.108521,-0.44959 8.5902379,5.7110299 0 0 1 -2.197798,3.34967 v 7.6538 5.94589 h 89.999152 v -5.94589 h 5.2e-4 v -7.68687 a 8.5902379,5.7110299 0 0 1 -2.16317,-3.39153 8.5902379,5.7110299 0 0 1 -8.56692,5.30304 8.5902379,5.7110299 0 0 1 -8.56692,-5.30614 8.5902379,5.7110299 0 0 1 -5.62343,4.94595 c 3.87656,-6.30405 1.89342,-20.59926 1.89342,-20.59926 0,0 -1.12757,-0.36456 -2.53266,-0.83664 v -3.76566 h -3.37654 v -2.5523 h -2.27324 v -5.25032 h 1.53065 v -1.61439 h -15.04714 v 1.61439 h 1.35961 v 7.43365 h -0.64648 v -3.24735 h -3.49591 v 3.24735 h -1.33738 v 4.11965 c -0.67665,0.23167 -1.30582,0.44419 -1.75338,0.59376 -0.4809,0.1607 -0.77722,0.25786 -0.77722,0.25786 0,0 -0.0378,0.271 -0.0925,0.755 v 5.1e-4 c -0.052,0.45943 -0.11919,1.11582 -0.18448,1.90893 -0.0209,0.25337 -0.0411,0.50932 -0.061,0.79013 -0.0656,0.9253 -0.12277,1.99042 -0.1509,3.1378 v 5.1e-4 c -0.0281,1.14723 -0.027,2.37637 0.0233,3.62924 7e-5,0.002 -7e-5,0.003 0,0.005 0.13958,3.47044 0.65921,7.12172 1.99264,9.71878 a 8.5902379,5.7110299 0 0 1 -3.7176,-4.28966 8.5902379,5.7110299 0 0 1 -3.29231,4.09071 v -2.30994 h 2.35438 v -4.89686 h -5.38933 v -7.41401 a 0.78476022,0.78476022 0 0 0 0,-0.0114 v -5.2e-4 a 0.78476022,0.78476022 0 0 0 0,-0.0124 v -7.5799 a 0.78476022,0.78476022 0 0 0 0,-0.0238 v -7.47396 a 0.78476022,0.78476022 0 0 0 -0.002,-0.061 0.78476022,0.78476022 0 0 0 0.002,-0.0248 v -7.59283 a 0.78476022,0.78476022 0 0 0 0,-0.0238 v -6.77581 h 48.16295 v 7.7494 l -3.18637,3.47835 h -0.0904 c -1.20976,0 -2.18333,0.97408 -2.18333,2.18384 v 8.96431 c 0,1.20977 0.97357,2.18385 2.18333,2.18385 h 7.39128 c 1.20975,0 2.18332,-0.97408 2.18332,-2.18385 v -8.96431 c 0,-1.20976 -0.97357,-2.18384 -2.18332,-2.18384 h -0.0904 l -3.18637,-3.4799 v -7.74785 h 3.97134 v -3.41108 H 136.9417 l -37.114019,-6.28437 a 0.78475848,0.78475848 0 0 0 -5.2e-4,0 0.78475848,0.78475848 0 0 0 -0.13022,-0.0114 z m -19.674768,9.7069 h 3.273702 v 1.80092 l -1.636592,-0.85318 -1.63711,0.85318 z m 16.662548,0.0858 h 4.914429 l -4.914429,4.91495 z m 6.022889,1.11052 v 4.81625 l -4.818309,10e-4 z m -6.022889,6.48178 h 4.820379 l -4.820379,4.82038 z m 56.175899,0.85318 2.46858,2.69648 h -4.93871 z m -50.15301,0.16278 v 4.91288 h -4.913399 z m -6.022889,6.56808 h 4.914429 l -4.914429,4.91494 z m 6.022889,1.11052 v 4.81625 l -4.818309,0.002 z m -6.022889,6.4823 h 4.819859 l -4.819859,4.81986 z m 6.022889,1.01544 v 4.91339 h -4.913399 z m -6.022889,6.49366 h 4.914429 l -4.914429,4.91443 z m 6.022889,1.11001 v 4.91339 H 97.794211 Z M 77.003753,168.6333 h 1.829862 v 1.81488 a 8.5902379,5.7110299 0 0 1 -1.829862,-1.81488 z m 5.55935,0 h 2.458248 v 3.51762 a 8.5902379,5.7110299 0 0 1 -0.09508,0.005 8.5902379,5.7110299 0 0 1 -2.363164,-0.22841 z m 6.187736,0 h 2.457732 v 1.68052 a 8.5902379,5.7110299 0 0 1 -2.457732,1.2361 z m 6.187222,0 h 2.45825 v 2.60501 a 8.5902379,5.7110299 0 0 1 -2.45825,-1.61075 z m 6.187729,0 h 2.45773 v 3.41685 a 8.5902379,5.7110299 0 0 1 -1.54564,0.10542 8.5902379,5.7110299 0 0 1 -0.91209,-0.0455 z" />
    <g
       id="g12875"
       transform="matrix(1.5693636,0,0,1.5693636,-184.12639,-46.020263)">
      <path
         id="rect550"
         style="color:#000000;fill:#d4aa00;stroke-linecap:square;stroke-linejoin:round;stroke-miterlimit:0;-inkscape-stroke:none"
         d="m 178.43314,128.43258 a 0.50005,0.50005 0 0 0 -0.50023,0.50023 v 4.83795 a 0.50005,0.50005 0 0 0 0.004,0.0377 0.50005,0.50005 0 0 0 0.003,0.032 0.50005,0.50005 0 0 0 0.0109,0.0512 0.50005,0.50005 0 0 0 0.0103,0.0388 0.50005,0.50005 0 0 0 0.0176,0.0424 0.50005,0.50005 0 0 0 0.0181,0.0388 0.50005,0.50005 0 0 0 0.0248,0.0388 0.50005,0.50005 0 0 0 0.0243,0.0346 0.50005,0.50005 0 0 0 0.0331,0.0351 0.50005,0.50005 0 0 0 0.0289,0.0289 0.50005,0.50005 0 0 0 0.0382,0.0284 0.50005,0.50005 0 0 0 0.0336,0.0233 0.50005,0.50005 0 0 0 0.0594,0.0289 0.50005,0.50005 0 0 0 0.0191,0.009 0.50005,0.50005 0 0 0 0.0853,0.0238 0.50005,0.50005 0 0 0 0.0904,0.008 h 4.83795 a 0.50005,0.50005 0 0 0 0.49971,-0.49971 v -4.83795 a 0.50005,0.50005 0 0 0 -0.007,-0.0837 0.50005,0.50005 0 0 0 -5.2e-4,-0.003 0.50005,0.50005 0 0 0 -0.0207,-0.078 0.50005,0.50005 0 0 0 -0.0326,-0.0734 0.50005,0.50005 0 0 0 -0.002,-0.003 0.50005,0.50005 0 0 0 0,-5.2e-4 0.50005,0.50005 0 0 0 -0.0377,-0.0558 0.50005,0.50005 0 0 0 -0.0109,-0.0155 0.50005,0.50005 0 0 0 -0.046,-0.0486 0.50005,0.50005 0 0 0 -0.01,-0.0103 0.50005,0.50005 0 0 0 -0.002,-0.002 0.50005,0.50005 0 0 0 -0.0501,-0.0377 0.50005,0.50005 0 0 0 -0.0196,-0.014 0.50005,0.50005 0 0 0 -0.0563,-0.0289 0.50005,0.50005 0 0 0 -0.0134,-0.007 0.50005,0.50005 0 0 0 -0.004,-0.002 0.50005,0.50005 0 0 0 -0.0594,-0.0191 0.50005,0.50005 0 0 0 -0.0232,-0.006 0.50005,0.50005 0 0 0 -0.0589,-0.008 0.50005,0.50005 0 0 0 -0.0253,-0.003 0.50005,0.50005 0 0 0 -0.0202,-0.002 z m 0.49971,0.99994 h 3.13159 l -3.13159,3.13159 z m 3.83801,0.70745 v 3.13056 h -3.13107 z" />
      <path
         id="rect550-3"
         style="color:#000000;fill:#d4aa00;stroke-linecap:square;stroke-linejoin:round;stroke-miterlimit:0;-inkscape-stroke:none"
         d="m 178.43314,123.58754 a 0.50005,0.50005 0 0 0 -0.50023,0.50023 v 4.83795 a 0.50005,0.50005 0 0 0 0.004,0.0377 0.50005,0.50005 0 0 0 0.003,0.032 0.50005,0.50005 0 0 0 0.0109,0.0512 0.50005,0.50005 0 0 0 0.0103,0.0388 0.50005,0.50005 0 0 0 0.0176,0.0424 0.50005,0.50005 0 0 0 0.0181,0.0388 0.50005,0.50005 0 0 0 0.0248,0.0388 0.50005,0.50005 0 0 0 0.0243,0.0346 0.50005,0.50005 0 0 0 0.0331,0.0351 0.50005,0.50005 0 0 0 0.0289,0.0289 0.50005,0.50005 0 0 0 0.0382,0.0284 0.50005,0.50005 0 0 0 0.0336,0.0233 0.50005,0.50005 0 0 0 0.0594,0.0289 0.50005,0.50005 0 0 0 0.0191,0.009 0.50005,0.50005 0 0 0 0.0853,0.0238 0.50005,0.50005 0 0 0 0.0904,0.008 h 4.83795 a 0.50005,0.50005 0 0 0 0.49971,-0.49971 v -4.83795 a 0.50005,0.50005 0 0 0 -0.007,-0.0837 0.50005,0.50005 0 0 0 -5.2e-4,-0.003 0.50005,0.50005 0 0 0 -0.0207,-0.078 0.50005,0.50005 0 0 0 -0.0326,-0.0734 0.50005,0.50005 0 0 0 -0.002,-0.003 0.50005,0.50005 0 0 0 0,-5.2e-4 0.50005,0.50005 0 0 0 -0.0377,-0.0558 0.50005,0.50005 0 0 0 -0.0109,-0.0155 0.50005,0.50005 0 0 0 -0.046,-0.0486 0.50005,0.50005 0 0 0 -0.01,-0.0103 0.50005,0.50005 0 0 0 -0.002,-0.002 0.50005,0.50005 0 0 0 -0.0501,-0.0377 0.50005,0.50005 0 0 0 -0.0196,-0.014 0.50005,0.50005 0 0 0 -0.0563,-0.0289 0.50005,0.50005 0 0 0 -0.0134,-0.007 0.50005,0.50005 0 0 0 -0.004,-0.002 0.50005,0.50005 0 0 0 -0.0594,-0.0191 0.50005,0.50005 0 0 0 -0.0232,-0.006 0.50005,0.50005 0 0 0 -0.0589,-0.008 0.50005,0.50005 0 0 0 -0.0253,-0.003 0.50005,0.50005 0 0 0 -0.0202,-0.002 z m 0.49971,0.99994 h 3.13159 l -3.13159,3.13159 z m 3.83801,0.70745 v 3.13056 h -3.13107 z" />
      <path
         id="rect550-34"
         style="color:#000000;fill:#d4aa00;stroke-linecap:square;stroke-linejoin:round;stroke-miterlimit:0;-inkscape-stroke:none"
         d="m 178.43314,118.80978 a 0.50005,0.50005 0 0 0 -0.50023,0.50023 v 4.83795 a 0.50005,0.50005 0 0 0 0.004,0.0377 0.50005,0.50005 0 0 0 0.003,0.032 0.50005,0.50005 0 0 0 0.0109,0.0512 0.50005,0.50005 0 0 0 0.0103,0.0388 0.50005,0.50005 0 0 0 0.0176,0.0424 0.50005,0.50005 0 0 0 0.0181,0.0388 0.50005,0.50005 0 0 0 0.0248,0.0388 0.50005,0.50005 0 0 0 0.0243,0.0346 0.50005,0.50005 0 0 0 0.0331,0.0351 0.50005,0.50005 0 0 0 0.0289,0.0289 0.50005,0.50005 0 0 0 0.0382,0.0284 0.50005,0.50005 0 0 0 0.0336,0.0233 0.50005,0.50005 0 0 0 0.0594,0.0289 0.50005,0.50005 0 0 0 0.0191,0.009 0.50005,0.50005 0 0 0 0.0853,0.0238 0.50005,0.50005 0 0 0 0.0904,0.008 h 4.83795 a 0.50005,0.50005 0 0 0 0.49971,-0.49971 V 119.31 a 0.50005,0.50005 0 0 0 -0.007,-0.0837 0.50005,0.50005 0 0 0 -5.2e-4,-0.003 0.50005,0.50005 0 0 0 -0.0207,-0.078 0.50005,0.50005 0 0 0 -0.0326,-0.0734 0.50005,0.50005 0 0 0 -0.002,-0.003 0.50005,0.50005 0 0 0 0,-5.2e-4 0.50005,0.50005 0 0 0 -0.0377,-0.0558 0.50005,0.50005 0 0 0 -0.0109,-0.0155 0.50005,0.50005 0 0 0 -0.046,-0.0486 0.50005,0.50005 0 0 0 -0.01,-0.0103 0.50005,0.50005 0 0 0 -0.002,-0.002 0.50005,0.50005 0 0 0 -0.0501,-0.0377 0.50005,0.50005 0 0 0 -0.0196,-0.014 0.50005,0.50005 0 0 0 -0.0563,-0.0289 0.50005,0.50005 0 0 0 -0.0134,-0.007 0.50005,0.50005 0 0 0 -0.004,-0.002 0.50005,0.50005 0 0 0 -0.0594,-0.0191 0.50005,0.50005 0 0 0 -0.0232,-0.006 0.50005,0.50005 0 0 0 -0.0589,-0.008 0.50005,0.50005 0 0 0 -0.0253,-0.003 0.50005,0.50005 0 0 0 -0.0202,-0.002 z m 0.49971,0.99994 h 3.13159 l -3.13159,3.13159 z m 3.83801,0.70745 v 3.13056 h -3.13107 z" />
      <path
         id="rect550-3-0"
         style="color:#000000;fill:#d4aa00;stroke-linecap:square;stroke-linejoin:round;stroke-miterlimit:0;-inkscape-stroke:none"
         d="m 178.43314,113.91711 a 0.50005,0.50005 0 0 0 -0.50023,0.50023 v 4.83795 a 0.50005,0.50005 0 0 0 0.004,0.0377 0.50005,0.50005 0 0 0 0.003,0.032 0.50005,0.50005 0 0 0 0.0109,0.0512 0.50005,0.50005 0 0 0 0.0103,0.0388 0.50005,0.50005 0 0 0 0.0176,0.0424 0.50005,0.50005 0 0 0 0.0181,0.0388 0.50005,0.50005 0 0 0 0.0248,0.0388 0.50005,0.50005 0 0 0 0.0243,0.0346 0.50005,0.50005 0 0 0 0.0331,0.0351 0.50005,0.50005 0 0 0 0.0289,0.0289 0.50005,0.50005 0 0 0 0.0382,0.0284 0.50005,0.50005 0 0 0 0.0336,0.0233 0.50005,0.50005 0 0 0 0.0594,0.0289 0.50005,0.50005 0 0 0 0.0191,0.009 0.50005,0.50005 0 0 0 0.0853,0.0238 0.50005,0.50005 0 0 0 0.0904,0.008 h 4.83795 a 0.50005,0.50005 0 0 0 0.49971,-0.49971 v -4.83795 a 0.50005,0.50005 0 0 0 -0.007,-0.0837 0.50005,0.50005 0 0 0 -5.2e-4,-0.003 0.50005,0.50005 0 0 0 -0.0207,-0.078 0.50005,0.50005 0 0 0 -0.0326,-0.0734 0.50005,0.50005 0 0 0 -0.002,-0.003 0.50005,0.50005 0 0 0 0,-5.2e-4 0.50005,0.50005 0 0 0 -0.0377,-0.0558 0.50005,0.50005 0 0 0 -0.0109,-0.0155 0.50005,0.50005 0 0 0 -0.046,-0.0486 0.50005,0.50005 0 0 0 -0.01,-0.0103 0.50005,0.50005 0 0 0 -0.002,-0.002 0.50005,0.50005 0 0 0 -0.0501,-0.0377 0.50005,0.50005 0 0 0 -0.0196,-0.014 0.50005,0.50005 0 0 0 -0.0563,-0.0289 0.50005,0.50005 0 0 0 -0.0134,-0.007 0.50005,0.50005 0 0 0 -0.004,-0.002 0.50005,0.50005 0 0 0 -0.0594,-0.0191 0.50005,0.50005 0 0 0 -0.0232,-0.006 0.50005,0.50005 0 0 0 -0.0589,-0.008 0.50005,0.50005 0 0 0 -0.0253,-0.003 0.50005,0.50005 0 0 0 -0.0202,-0.002 z m 0.49971,0.99994 h 3.13159 l -3.13159,3.13159 z m 3.83801,0.70745 v 3.13056 h -3.13107 z" />
      <path
         id="rect550-34-1"
         style="color:#000000;fill:#d4aa00;stroke-linecap:square;stroke-linejoin:round;stroke-miterlimit:0;-inkscape-stroke:none"
         d="m 178.43314,109.13935 a 0.50005,0.50005 0 0 0 -0.50023,0.50023 v 4.83795 a 0.50005,0.50005 0 0 0 0.004,0.0377 0.50005,0.50005 0 0 0 0.003,0.032 0.50005,0.50005 0 0 0 0.0109,0.0512 0.50005,0.50005 0 0 0 0.0103,0.0388 0.50005,0.50005 0 0 0 0.0176,0.0424 0.50005,0.50005 0 0 0 0.0181,0.0388 0.50005,0.50005 0 0 0 0.0248,0.0388 0.50005,0.50005 0 0 0 0.0243,0.0346 0.50005,0.50005 0 0 0 0.0331,0.0351 0.50005,0.50005 0 0 0 0.0289,0.0289 0.50005,0.50005 0 0 0 0.0382,0.0284 0.50005,0.50005 0 0 0 0.0336,0.0233 0.50005,0.50005 0 0 0 0.0594,0.0289 0.50005,0.50005 0 0 0 0.0191,0.009 0.50005,0.50005 0 0 0 0.0853,0.0238 0.50005,0.50005 0 0 0 0.0904,0.008 h 4.83795 a 0.50005,0.50005 0 0 0 0.49971,-0.49971 v -4.83795 a 0.50005,0.50005 0 0 0 -0.007,-0.0837 0.50005,0.50005 0 0 0 -5.2e-4,-0.003 0.50005,0.50005 0 0 0 -0.0207,-0.078 0.50005,0.50005 0 0 0 -0.0326,-0.0734 0.50005,0.50005 0 0 0 -0.002,-0.003 0.50005,0.50005 0 0 0 0,-5.2e-4 0.50005,0.50005 0 0 0 -0.0377,-0.0558 0.50005,0.50005 0 0 0 -0.0109,-0.0155 0.50005,0.50005 0 0 0 -0.046,-0.0486 0.50005,0.50005 0 0 0 -0.01,-0.0103 0.50005,0.50005 0 0 0 -0.002,-0.002 0.50005,0.50005 0 0 0 -0.0501,-0.0377 0.50005,0.50005 0 0 0 -0.0196,-0.014 0.50005,0.50005 0 0 0 -0.0563,-0.0289 0.50005,0.50005 0 0 0 -0.0134,-0.007 0.50005,0.50005 0 0 0 -0.004,-0.002 0.50005,0.50005 0 0 0 -0.0594,-0.0191 0.50005,0.50005 0 0 0 -0.0232,-0.006 0.50005,0.50005 0 0 0 -0.0589,-0.008 0.50005,0.50005 0 0 0 -0.0253,-0.003 0.50005,0.50005 0 0 0 -0.0202,-0.002 z m 0.49971,0.99994 h 3.13159 l -3.13159,3.13159 z m 3.83801,0.70745 v 3.13056 h -3.13107 z" />
    </g>
    <g
       id="g2025"
       inkscape:label="counterweight"
       transform="matrix(1.5693636,0,0,1.5693636,-184.12639,-46.020263)">
      <path
         id="rect1999"
         style="fill:#d4aa00;fill-opacity:1;stroke:#d4aa00;stroke-width:0;stroke-linecap:square;stroke-linejoin:round;stroke-miterlimit:0;stroke-dasharray:none;stroke-opacity:1;stop-color:#000000"
         d="m 167.22038,109.35748 v 2.70009 h 1.09502 v -2.70009 z m 3.1812,0 v 2.70009 h 1.09554 v -2.70009 z" />
      <path
         id="rect2079"
         style="fill:#4d4d4d;stroke:#d4aa00;stroke-width:0;stroke-linecap:square;stroke-linejoin:round;stroke-miterlimit:0;stop-color:#000000"
         d="m 166.43821,112.2108 2.92053,-1.52242 2.92054,1.52242 v 3.60997 h -5.84107 z"
         sodipodi:nodetypes="cccccc" />
    </g>
    <g
       id="g12868"
       transform="matrix(1.5693636,0,0,1.5693636,-184.12639,-46.020263)">
      <path
         style="fill:#000000;fill-opacity:0;stroke:#d4aa00;stroke-width:1;stroke-linecap:round;stroke-linejoin:round;stroke-dasharray:none;stroke-opacity:1"
         d="m 166.39918,108.99783 14.45306,-4.59854 27.15972,4.59854"
         id="path2137"
         sodipodi:nodetypes="ccc" />
      <path
         style="fill:none;stroke:#d4aa00;stroke-width:1;stroke-linecap:round;stroke-linejoin:round;stroke-dasharray:none;stroke-opacity:1"
         d="m 178.50584,109.13805 2.3464,-4.73876 2.27724,4.59854"
         id="path2277"
         sodipodi:nodetypes="ccc" />
      <rect
         style="fill:#806600;fill-opacity:1;stroke:#d4aa00;stroke-width:0;stroke-linecap:square;stroke-linejoin:round;stroke-miterlimit:0;stroke-dasharray:none;stroke-opacity:1;stop-color:#000000"
         id="rect1807"
         width="52.244675"
         height="2.1734622"
         x="165.31049"
         y="108.05132" />
    </g>
    <path
       style="fill:#333333;stroke:#333333;stroke-width:0.837185;stroke-linecap:butt;stroke-linejoin:miter;stroke-dasharray:none;stroke-opacity:1"
       d="m 152.85964,125.03696 v 9.61631"
       id="path2417" />
    <path
       style="fill:#333333;stroke:#333333;stroke-width:0.837185;stroke-linecap:butt;stroke-linejoin:miter;stroke-dasharray:none;stroke-opacity:1"
       d="m 147.84629,140.12746 5.01335,-5.47419 5.01333,5.47419"
       id="path2443" />
    <g
       id="g8925"
       transform="matrix(1.5693636,0,0,1.5693636,-171.42639,-46.020263)">
      <rect
         style="fill:#ff2a2a;fill-opacity:1;stroke:#d4aa00;stroke-width:0;stroke-linecap:round;stroke-linejoin:round;stroke-miterlimit:0;stroke-dasharray:none;stroke-opacity:1;stop-color:#000000"
         id="rect2686"
         width="7.4923663"
         height="8.4952316"
         x="202.88918"
         y="117.23885"
         rx="1.3914497"
         ry="1.3914497" />
      <rect
         style="fill:none;fill-opacity:1;stroke:#961919;stroke-width:0.5;stroke-linecap:round;stroke-linejoin:round;stroke-miterlimit:0;stroke-dasharray:none;stroke-opacity:1;stop-color:#000000"
         id="rect2686-0"
         width="6.5250163"
         height="7.3984003"
         x="203.37286"
         y="117.78727"
         rx="1.2117977"
         ry="1.2117977" />
      <path
         style="fill:none;stroke:#961919;stroke-width:0.5;stroke-linecap:round;stroke-linejoin:round;stroke-dasharray:none;stroke-opacity:1"
         d="m 204.84843,118.5744 v 5.90123"
         id="path3142" />
      <path
         style="fill:none;stroke:#961919;stroke-width:0.5;stroke-linecap:round;stroke-linejoin:round;stroke-dasharray:none;stroke-opacity:1"
         d="m 206.0449,118.5744 v 5.90123"
         id="path3142-1" />
      <path
         style="fill:none;stroke:#961919;stroke-width:0.5;stroke-linecap:round;stroke-linejoin:round;stroke-dasharray:none;stroke-opacity:1"
         d="m 207.24137,118.5744 v 5.90123"
         id="path3142-11" />
      <path
         style="fill:none;stroke:#961919;stroke-width:0.5;stroke-linecap:round;stroke-linejoin:round;stroke-dasharray:none;stroke-opacity:1"
         d="m 208.43784,118.5744 v 5.90123"
         id="path3142-0" />
    </g>
    <g
       id="g7956"
       inkscape:label="dock"
       transform="matrix(0.75524814,0,0,1.0539688,-49.223063,23.182022)">
      <path
         id="rect3493"
         style="fill:#808080;fill-opacity:1;stroke:none;stroke-width:0.58156;stroke-linecap:round;stroke-linejoin:round;stroke-miterlimit:0;stroke-dasharray:none;stroke-opacity:1;stop-color:#000000"
         d="m 169.55564,136.06644 v 5.71852 h 4.9382 v -5.71852 z m 8.19278,0 v 5.71852 h 4.9382 v -5.71852 z m 8.19226,0 v 5.71852 h 4.9382 v -5.71852 z m 8.19278,0 v 5.71852 h 4.9382 v -5.71852 z m 8.19227,0 v 5.71852 h 4.9382 v -5.71852 z" />
      <rect
         style="fill:#999999;fill-opacity:1;stroke:none;stroke-width:0.499999;stroke-linecap:round;stroke-linejoin:round;stroke-miterlimit:0;stroke-dasharray:none;stroke-opacity:1;stop-color:#000000"
         id="rect3387"
         width="43.943333"
         height="4.6460023"
         x="166.4382"
         y="133.35747" />
    </g>
    <g
       id="g7999"
       inkscape:label="ship"
       transform="matrix(1.9138281,0,0,1.9138281,-291.67997,-95.705906)">
      <g
         id="g7926"
         inkscape:label="bridge"
         transform="matrix(0.78788774,0,0,0.78788774,46.399365,26.046483)">
        <rect
           style="fill:#999999;fill-opacity:1;stroke:none;stroke-width:0.301424;stroke-linecap:round;stroke-linejoin:round;stroke-miterlimit:0;stroke-dasharray:none;stroke-opacity:1;stop-color:#000000"
           id="rect5665"
           width="8.0620403"
           height="7.4347982"
           x="214.66248"
           y="122.32394" />
        <path
           id="rect7654"
           style="fill:url(#linearGradient7921);fill-opacity:1;stroke:#2e5a2e;stroke-width:0;stroke-linecap:round;stroke-linejoin:round;stroke-miterlimit:0;stroke-dasharray:none;stroke-opacity:1;stop-color:#000000"
           d="m 218.51802,122.05851 c -1.52871,0 -2.76777,0.0983 -2.76779,0.22014 v 1.58854 h 5.5361 v -1.58854 c -2e-5,-0.12184 -1.2396,-0.22014 -2.76831,-0.22014 z" />
        <rect
           style="fill:#ff4848;fill-opacity:1;stroke:#2e5a2e;stroke-width:0;stroke-linecap:round;stroke-linejoin:round;stroke-miterlimit:0;stroke-dasharray:none;stroke-opacity:1;stop-color:#000000"
           id="rect8642"
           width="9.9789915"
           height="1.0706712"
           x="213.76077"
           y="121.38496" />
        <rect
           style="fill:#000000;fill-opacity:1;stroke:#2e5a2e;stroke-width:0;stroke-linecap:round;stroke-linejoin:round;stroke-miterlimit:0;stroke-dasharray:none;stroke-opacity:1;stop-color:#000000"
           id="rect7474"
           width="1.0063822"
           height="0.4803775"
           x="216.16992"
           y="122.72831" />
        <rect
           style="fill:#000000;fill-opacity:1;stroke:#2e5a2e;stroke-width:0;stroke-linecap:round;stroke-linejoin:round;stroke-miterlimit:0;stroke-dasharray:none;stroke-opacity:1;stop-color:#000000"
           id="rect7474-4"
           width="1.0063822"
           height="0.4803775"
           x="217.4601"
           y="122.72831" />
        <rect
           style="fill:#000000;fill-opacity:1;stroke:#2e5a2e;stroke-width:0;stroke-linecap:round;stroke-linejoin:round;stroke-miterlimit:0;stroke-dasharray:none;stroke-opacity:1;stop-color:#000000"
           id="rect7474-48"
           width="1.0063822"
           height="0.4803775"
           x="218.75027"
           y="122.72831" />
        <rect
           style="fill:#000000;fill-opacity:1;stroke:#2e5a2e;stroke-width:0;stroke-linecap:round;stroke-linejoin:round;stroke-miterlimit:0;stroke-dasharray:none;stroke-opacity:1;stop-color:#000000"
           id="rect7474-6"
           width="1.0063822"
           height="0.4803775"
           x="220.04045"
           y="122.72831" />
        <path
           id="path8177"
           style="fill:#666666;stroke:#2e5a2e;stroke-width:0;stroke-linecap:round;stroke-linejoin:round;stroke-miterlimit:0;stop-color:#000000"
           d="m 215.75011,123.86726 c 2e-5,-0.1218 1.23929,-0.22054 2.768,-0.22054 1.52871,0 2.76798,0.0987 2.768,0.22054 z"
           sodipodi:nodetypes="cscc" />
      </g>
      <g
         id="g7416"
         inkscape:label="crates">
        <rect
           style="fill:#5050ff;fill-opacity:1;stroke:none;stroke-width:0.261057;stroke-linecap:round;stroke-linejoin:round;stroke-miterlimit:0;stroke-dasharray:none;stroke-opacity:1;stop-color:#000000"
           id="rect5719"
           width="3.4085906"
           height="3.1664429"
           x="212.66603"
           y="126.41209" />
        <rect
           style="fill:#ff4848;fill-opacity:1;stroke:none;stroke-width:0.139905;stroke-linecap:round;stroke-linejoin:round;stroke-miterlimit:0;stroke-dasharray:none;stroke-opacity:1;stop-color:#000000"
           id="rect5719-9"
           width="1.8267212"
           height="1.6969502"
           x="213.36482"
           y="124.71513" />
        <rect
           style="fill:none;fill-opacity:1;stroke:#3636ac;stroke-width:0.2;stroke-linecap:round;stroke-linejoin:round;stroke-miterlimit:0;stroke-dasharray:none;stroke-opacity:1;stop-color:#000000"
           id="rect6126-4-8"
           width="2.8716712"
           height="2.094166"
           x="212.93105"
           y="126.74779" />
        <rect
           style="fill:#ffff63;fill-opacity:1;stroke:none;stroke-width:0.499999;stroke-linecap:round;stroke-linejoin:round;stroke-miterlimit:0;stroke-dasharray:none;stroke-opacity:1;stop-color:#000000"
           id="rect6126"
           width="1.9467969"
           height="1.5138417"
           x="221.12244"
           y="125.2711" />
        <rect
           style="fill:none;fill-opacity:1;stroke:#cbcb4f;stroke-width:0.150849;stroke-linecap:round;stroke-linejoin:round;stroke-miterlimit:0;stroke-dasharray:none;stroke-opacity:1;stop-color:#000000"
           id="rect6126-4"
           width="1.4683633"
           height="1.1418086"
           x="221.36165"
           y="125.45712" />
        <rect
           style="fill:none;fill-opacity:1;stroke:#b83434;stroke-width:0.165387;stroke-linecap:round;stroke-linejoin:round;stroke-miterlimit:0;stroke-dasharray:none;stroke-opacity:1;stop-color:#000000"
           id="rect6126-4-9"
           width="1.4539765"
           height="1.3833033"
           x="213.55119"
           y="124.87196" />
        <rect
           style="fill:#4a804a;fill-opacity:1;stroke:none;stroke-width:0.499999;stroke-linecap:round;stroke-linejoin:round;stroke-miterlimit:0;stroke-dasharray:none;stroke-opacity:1;stop-color:#000000"
           id="rect5864"
           width="4.0152688"
           height="2.1597281"
           x="220.81827"
           y="126.60494" />
        <rect
           style="fill:none;fill-opacity:1;stroke:#2e5a2e;stroke-width:0.2;stroke-linecap:round;stroke-linejoin:round;stroke-miterlimit:0;stroke-dasharray:none;stroke-opacity:1;stop-color:#000000"
           id="rect6126-4-4"
           width="3.348702"
           height="2.172858"
           x="221.19716"
           y="126.94223" />
      </g>
      <g
         id="g5559"
         inkscape:label="hull">
        <path
           id="rect5409"
           style="fill:#916f6f;stroke-width:0.35059;stroke-linecap:round;stroke-linejoin:round;stroke-miterlimit:0;stop-color:#000000"
           d="m 211.34367,129.00967 c 0,0 2.47905,-0.81453 3.68826,-1.30202 1.2437,-0.50139 3.66156,-1.66631 3.66156,-1.66631 0,0 2.43861,1.16166 3.69281,1.66002 1.23635,0.49126 3.7706,1.30831 3.7706,1.30831 0,0 1.25773,9.06581 -1.70633,11.62662 -2.87562,2.4844 -8.52495,2.4844 -11.40057,0 -2.96406,-2.56081 -1.70633,-11.62662 -1.70633,-11.62662 z"
           sodipodi:nodetypes="cacacaac" />
        <path
           id="rect5409-2"
           style="fill:#795d5d;fill-opacity:1;stroke-width:0.35059;stroke-linecap:round;stroke-linejoin:round;stroke-miterlimit:0;stop-color:#000000"
           d="m 215.03164,127.70775 c -1.2092,0.48748 -3.68795,1.3019 -3.68795,1.3019 0,0 -1.25776,9.06577 1.70628,11.62657 1.43782,1.2422 3.56882,1.86318 5.70005,1.86318 l -0.0565,-16.45806 c -0.006,-0.003 -2.41817,1.16502 -3.66187,1.66641 z"
           sodipodi:nodetypes="scsccs" />
      </g>
    </g>
    <g
       id="g7930"
       inkscape:label="water"
       transform="matrix(1.4193394,0,0,1.4193394,-160.21229,-27.920399)">
      <rect
         style="fill:#1e90ff;fill-opacity:1;stroke:none;stroke-width:0.681144;stroke-linecap:round;stroke-linejoin:round;stroke-miterlimit:0;stroke-dasharray:none;stroke-opacity:1;stop-color:#000000"
         id="rect3618"
         width="63.409164"
         height="8.0929604"
         x="165.13683"
         y="141.12953" />
      <path
         id="rect3618-3"
         style="fill:#1e90ff;fill-opacity:1;stroke:none;stroke-width:0.681144;stroke-linecap:round;stroke-linejoin:round;stroke-miterlimit:0;stroke-dasharray:none;stroke-opacity:1;stop-color:#000000"
         d="m 214.95029,137.22595 a 6.0522789,4.0237239 0 0 1 -6.03664,3.73815 6.0522789,4.0237239 0 0 1 -6.03595,-3.73604 6.0522789,4.0237239 0 0 1 -6.03594,3.73604 6.0522789,4.0237239 0 0 1 -6.03664,-3.73604 6.0522789,4.0237239 0 0 1 -6.03595,3.73604 6.0522789,4.0237239 0 0 1 -6.0282,-3.68534 6.0522789,4.0237239 0 0 1 -6.0282,3.68534 6.0522789,4.0237239 0 0 1 -6.02749,-3.68323 6.0522789,4.0237239 0 0 1 -1.54876,2.35974 v 5.3925 h 63.40978 v -5.41573 a 6.0522789,4.0237239 0 0 1 -1.52413,-2.38932 6.0522789,4.0237239 0 0 1 -6.03593,3.73604 6.0522789,4.0237239 0 0 1 -6.03595,-3.73815 z" />
    </g>
  </g>
</svg>
