<?xml version="1.0" encoding="UTF-8" standalone="no"?>
<!-- Created with Inkscape (http://www.inkscape.org/) -->

<svg
   width="80.710365mm"
   height="80.710365mm"
   viewBox="0 0 80.710365 80.710365"
   version="1.1"
   id="svg1"
   inkscape:version="1.3 (0e150ed6c4, 2023-07-21)"
   sodipodi:docname="AirDomain.svg"
   xmlns:inkscape="http://www.inkscape.org/namespaces/inkscape"
   xmlns:sodipodi="http://sodipodi.sourceforge.net/DTD/sodipodi-0.dtd"
   xmlns="http://www.w3.org/2000/svg"
   xmlns:svg="http://www.w3.org/2000/svg">
  <sodipodi:namedview
     id="namedview1"
     pagecolor="#0e0c4e"
     bordercolor="#000000"
     borderopacity="0.25"
     inkscape:showpageshadow="2"
     inkscape:pageopacity="0.0"
     inkscape:pagecheckerboard="0"
     inkscape:deskcolor="#d1d1d1"
     inkscape:document-units="mm"
     inkscape:zoom="0.52850974"
     inkscape:cx="-545.87452"
     inkscape:cy="318.82099"
     inkscape:window-width="1920"
     inkscape:window-height="1017"
     inkscape:window-x="-8"
     inkscape:window-y="-8"
     inkscape:window-maximized="1"
     inkscape:current-layer="layer1" />
  <defs
     id="defs1" />
  <g
     inkscape:label="Layer 1"
     inkscape:groupmode="layer"
     id="layer1"
     transform="translate(-63.364719,-55.930866)">
    <path
       id="rect1"
       style="fill:#e6e6e6;stroke-width:14.3195;stroke-miterlimit:0;stroke-dasharray:7.15976, 7.15976;paint-order:markers fill stroke"
       d="m 103.71964,59.025531 a 5.8408837,12.655244 0 0 0 -5.840466,12.655041 v 26.77356 22.436878 a 5.8408837,12.655244 0 0 0 5.840466,12.65556 5.8408837,12.655244 0 0 0 5.84099,-12.65556 V 94.117962 71.680572 a 5.8408837,12.655244 0 0 0 -5.84099,-12.655041 z" />
    <path
       id="rect2"
       style="fill:#e6e6e6;stroke-width:20.3;stroke-miterlimit:0;stroke-dasharray:10.15, 10.15;paint-order:markers fill stroke"
       d="m 69.194337,105.27646 c 0.629298,-2.56818 3.084826,-4.34802 5.049232,-6.11796 7.05824,-6.359526 23.74773,-15.760918 23.74773,-15.760918 l 6.257771,10.838775 -28.454471,12.578113 c 0,0 -4.356827,2.1915 -6.051676,1.04359 -0.728405,-0.49334 -0.757966,-1.72713 -0.548586,-2.5816 z"
       sodipodi:nodetypes="aacccaa" />
    <path
       id="rect2-5"
       style="fill:#e6e6e6;stroke-width:20.3;stroke-miterlimit:0;stroke-dasharray:10.15, 10.15;paint-order:markers fill stroke"
       d="m 138.24546,105.27646 c -0.62929,-2.56818 -3.08482,-4.34802 -5.04923,-6.11796 C 126.13799,92.798974 109.4485,83.397582 109.4485,83.397582 l -6.25777,10.838775 28.45447,12.578113 c 0,0 4.35683,2.1915 6.05168,1.04359 0.7284,-0.49334 0.75796,-1.72713 0.54858,-2.5816 z"
       sodipodi:nodetypes="aacccaa" />
    <path
       id="rect2-7"
       style="fill:#e6e6e6;stroke-width:12.0294;stroke-miterlimit:0;stroke-dasharray:6.01471, 6.01471;paint-order:markers fill stroke"
       d="m 100.32469,117.083 c 0,0 -9.889631,5.57127 -14.072218,9.3398 -1.164071,1.04884 -2.619534,2.1035 -2.992446,3.62535 -0.124079,0.50635 -0.106408,1.2369 0.325236,1.52925 1.004338,0.68022 3.586017,-0.61816 3.586017,-0.61816 l 16.548361,-7.31534 16.54767,7.31534 c 0,0 2.58238,1.29838 3.58672,0.61816 0.43164,-0.29235 0.44859,-1.0229 0.32453,-1.52925 -0.37292,-1.52185 -1.82769,-2.57651 -2.99175,-3.62535 -4.18258,-3.76853 -14.07222,-9.3398 -14.07222,-9.3398 l -3.39495,5.88023 z" />
  </g>
</svg>
