<?xml version="1.0" encoding="UTF-8" standalone="no"?>
<!-- Created with Inkscape (http://www.inkscape.org/) -->

<svg
   width="80.710365mm"
   height="80.710365mm"
   viewBox="0 0 80.710365 80.710365"
   version="1.1"
   id="svg1"
   inkscape:version="1.3 (0e150ed6c4, 2023-07-21)"
   sodipodi:docname="LandDomain.svg"
   xmlns:inkscape="http://www.inkscape.org/namespaces/inkscape"
   xmlns:sodipodi="http://sodipodi.sourceforge.net/DTD/sodipodi-0.dtd"
   xmlns="http://www.w3.org/2000/svg"
   xmlns:svg="http://www.w3.org/2000/svg">
  <sodipodi:namedview
     id="namedview1"
     pagecolor="#0e0c4e"
     bordercolor="#000000"
     borderopacity="0.25"
     inkscape:showpageshadow="2"
     inkscape:pageopacity="0.0"
     inkscape:pagecheckerboard="0"
     inkscape:deskcolor="#d1d1d1"
     inkscape:document-units="mm"
     inkscape:zoom="0.13212744"
     inkscape:cx="-1721.8226"
     inkscape:cy="647.10255"
     inkscape:window-width="1920"
     inkscape:window-height="1017"
     inkscape:window-x="-8"
     inkscape:window-y="-8"
     inkscape:window-maximized="1"
     inkscape:current-layer="layer1" />
  <defs
     id="defs1" />
  <g
     inkscape:label="Layer 1"
     inkscape:groupmode="layer"
     id="layer1"
     transform="translate(-63.364719,-55.930866)">
    <rect
       style="fill:#e6e6e6;stroke-width:20.3;stroke-miterlimit:0;stroke-dasharray:10.15, 10.15;paint-order:markers fill stroke"
       id="rect1"
       width="27.283871"
       height="50.81308"
       x="104.91631"
       y="70.879509" />
    <path
       id="rect2"
       style="fill:#e6e6e6;stroke-width:19.1488;stroke-miterlimit:0;stroke-dasharray:9.57439, 9.57439;paint-order:markers fill stroke"
       d="m 77.632435,102.29351 c 3.431302,-3.646269 8.804153,-5.345319 13.767087,-6.007462 13.626108,-1.817956 40.800648,6.007462 40.800648,6.007462 v 19.39908 H 77.632435 c 0,0 -2.255262,-2.26143 -2.878573,-3.69208 -0.734173,-1.68511 -1.051521,-3.61455 -0.876088,-5.44426 0.347666,-3.62604 1.258292,-7.60997 3.754661,-10.26274 z"
       sodipodi:nodetypes="aacccaaa" />
    <rect
       style="fill:#e6e6e6;stroke-width:20.3;stroke-miterlimit:0;stroke-dasharray:10.15, 10.15;paint-order:markers fill stroke"
       id="rect3"
       width="3.5043466"
       height="2.8785758"
       x="79.136909"
       y="120.2533" />
    <rect
       style="fill:#e6e6e6;stroke-width:20.3;stroke-miterlimit:0;stroke-dasharray:10.15, 10.15;paint-order:markers fill stroke"
       id="rect3-2"
       width="3.5043466"
       height="2.8785758"
       x="85.225296"
       y="120.2533" />
    <rect
       style="fill:#e6e6e6;stroke-width:20.3;stroke-miterlimit:0;stroke-dasharray:10.15, 10.15;paint-order:markers fill stroke"
       id="rect3-0"
       width="3.5043466"
       height="2.8785758"
       x="91.313683"
       y="120.2533" />
    <rect
       style="fill:#e6e6e6;stroke-width:20.3;stroke-miterlimit:0;stroke-dasharray:10.15, 10.15;paint-order:markers fill stroke"
       id="rect3-4"
       width="3.5043466"
       height="2.8785758"
       x="97.402077"
       y="120.2533" />
    <rect
       style="fill:#e6e6e6;stroke-width:20.3;stroke-miterlimit:0;stroke-dasharray:10.15, 10.15;paint-order:markers fill stroke"
       id="rect3-48"
       width="3.5043466"
       height="2.8785758"
       x="103.49046"
       y="120.2533" />
    <rect
       style="fill:#e6e6e6;stroke-width:20.3;stroke-miterlimit:0;stroke-dasharray:10.15, 10.15;paint-order:markers fill stroke"
       id="rect3-41"
       width="3.5043466"
       height="2.8785758"
       x="109.57886"
       y="120.2533" />
    <rect
       style="fill:#e6e6e6;stroke-width:20.3;stroke-miterlimit:0;stroke-dasharray:10.15, 10.15;paint-order:markers fill stroke"
       id="rect3-9"
       width="3.5043466"
       height="2.8785758"
       x="115.66724"
       y="120.2533" />
    <rect
       style="fill:#e6e6e6;stroke-width:20.3;stroke-miterlimit:0;stroke-dasharray:10.15, 10.15;paint-order:markers fill stroke"
       id="rect3-1"
       width="3.5043466"
       height="2.8785758"
       x="121.75563"
       y="120.2533" />
    <rect
       style="fill:#e6e6e6;stroke-width:20.3;stroke-miterlimit:0;stroke-dasharray:10.15, 10.15;paint-order:markers fill stroke"
       id="rect3-5"
       width="3.5043466"
       height="2.8785758"
       x="127.84402"
       y="120.2533" />
    <path
       id="rect4"
       style="fill:#e6e6e6;stroke-width:20.9507;stroke-miterlimit:0;stroke-dasharray:10.4753, 10.4753;paint-order:markers fill stroke"
       d="m 103.01533,67.099065 c 0.6718,-0.490227 2.49493,0 2.49493,0 h 26.54947 c 0,0 1.49375,-0.403873 2.04141,0 1.44137,1.062948 1.57905,3.341987 1.5875,5.132893 0.009,1.847355 -0.10589,4.206441 -1.5875,5.309896 -0.52209,0.388832 -1.95292,0 -1.95292,0 h -27.34594 c 0,0 -1.31082,0.357903 -1.78695,0 -1.52195,-1.144029 -1.6145,-3.583107 -1.5875,-5.486892 0.0246,-1.734475 0.18626,-3.933378 1.5875,-4.955897 z"
       sodipodi:nodetypes="accaaaccaaa" />
  </g>
</svg>
